  0
SECTION
  2
HEADER
  9
$ACADVER
  1
AC1009
  9
$FILLMODE
 70
 0
  9
$SPLFRAME
 70
 1
  9
$EXTMIN
 10
0
 20
0
 30
0.0
  9
$EXTMAX
 10
1058.33
 20
1058.33
 30
0.0
  0
ENDSEC
  0
SECTION
  2
TABLES
  0
TABLE
  2
LAYER
 70
1
  0
LAYER
  2
0
 70
     0
 62
     7
  6
CONTINUOUS
  0
ENDTAB
  0
ENDSEC
  0
SECTION
  2
ENTITIES
  0
LINE
  8
0
 62
     0
 10
0.0950846
 20
80.3381
 30
0.0
 11
80.2954
 21
80.3381
 31
0.0
  0
LINE
  8
0
 62
     0
 10
80.2954
 20
80.3381
 30
0.0
 11
80.2954
 21
0.137804
 31
0.0
  0
LINE
  8
0
 62
     0
 10
80.2954
 20
0.137804
 30
0.0
 11
0.0950846
 21
0.137804
 31
0.0
  0
LINE
  8
0
 62
     0
 10
0.0950846
 20
0.137804
 30
0.0
 11
0.0950846
 21
80.3381
 31
0.0
  0
LINE
  8
0
 62
     0
 10
4.61779
 20
18.6642
 30
0.0
 11
4.61779
 21
17.6637
 31
0.0
  0
LINE
  8
0
 62
     0
 10
4.61779
 20
17.6637
 30
0.0
 11
3.81854
 21
17.6637
 31
0.0
  0
LINE
  8
0
 62
     0
 10
3.81854
 20
17.6637
 30
0.0
 11
3.81854
 21
14.5645
 31
0.0
  0
LINE
  8
0
 62
     0
 10
3.81854
 20
14.5645
 30
0.0
 11
4.61779
 21
14.5645
 31
0.0
  0
LINE
  8
0
 62
     0
 10
4.61779
 20
14.5645
 30
0.0
 11
4.61779
 21
8.76434
 31
0.0
  0
LINE
  8
0
 62
     0
 10
4.61779
 20
8.76434
 30
0.0
 11
3.81854
 21
8.76434
 31
0.0
  0
LINE
  8
0
 62
     0
 10
3.81854
 20
8.76434
 30
0.0
 11
3.81854
 21
5.66374
 31
0.0
  0
LINE
  8
0
 62
     0
 10
3.81854
 20
5.66374
 30
0.0
 11
4.61779
 21
5.66374
 31
0.0
  0
LINE
  8
0
 62
     0
 10
4.61779
 20
5.66374
 30
0.0
 11
4.61779
 21
4.6633
 31
0.0
  0
LINE
  8
0
 62
     0
 10
4.61779
 20
4.6633
 30
0.0
 11
18.6201
 21
4.6633
 31
0.0
  0
LINE
  8
0
 62
     0
 10
18.6201
 20
4.6633
 30
0.0
 11
18.6201
 21
5.66374
 31
0.0
  0
LINE
  8
0
 62
     0
 10
18.6201
 20
5.66374
 30
0.0
 11
19.4193
 21
5.66374
 31
0.0
  0
LINE
  8
0
 62
     0
 10
19.4193
 20
5.66374
 30
0.0
 11
19.4193
 21
8.76434
 31
0.0
  0
LINE
  8
0
 62
     0
 10
19.4193
 20
8.76434
 30
0.0
 11
18.6201
 21
8.76434
 31
0.0
  0
LINE
  8
0
 62
     0
 10
18.6201
 20
8.76434
 30
0.0
 11
18.6201
 21
14.5645
 31
0.0
  0
LINE
  8
0
 62
     0
 10
18.6201
 20
14.5645
 30
0.0
 11
19.4193
 21
14.5645
 31
0.0
  0
LINE
  8
0
 62
     0
 10
19.4193
 20
14.5645
 30
0.0
 11
19.4193
 21
17.6637
 31
0.0
  0
LINE
  8
0
 62
     0
 10
19.4193
 20
17.6637
 30
0.0
 11
18.6201
 21
17.6637
 31
0.0
  0
LINE
  8
0
 62
     0
 10
18.6201
 20
17.6637
 30
0.0
 11
18.6201
 21
18.6642
 31
0.0
  0
LINE
  8
0
 62
     0
 10
18.6201
 20
18.6642
 30
0.0
 11
4.61779
 21
18.6642
 31
0.0
  0
LINE
  8
0
 62
     0
 10
23.6692
 20
18.6642
 30
0.0
 11
23.6692
 21
17.6637
 31
0.0
  0
LINE
  8
0
 62
     0
 10
23.6692
 20
17.6637
 30
0.0
 11
22.8699
 21
17.6637
 31
0.0
  0
LINE
  8
0
 62
     0
 10
22.8699
 20
17.6637
 30
0.0
 11
22.8699
 21
14.5645
 31
0.0
  0
LINE
  8
0
 62
     0
 10
22.8699
 20
14.5645
 30
0.0
 11
23.6692
 21
14.5645
 31
0.0
  0
LINE
  8
0
 62
     0
 10
23.6692
 20
14.5645
 30
0.0
 11
23.6692
 21
8.76434
 31
0.0
  0
LINE
  8
0
 62
     0
 10
23.6692
 20
8.76434
 30
0.0
 11
22.8699
 21
8.76434
 31
0.0
  0
LINE
  8
0
 62
     0
 10
22.8699
 20
8.76434
 30
0.0
 11
22.8699
 21
5.66374
 31
0.0
  0
LINE
  8
0
 62
     0
 10
22.8699
 20
5.66374
 30
0.0
 11
23.6692
 21
5.66374
 31
0.0
  0
LINE
  8
0
 62
     0
 10
23.6692
 20
5.66374
 30
0.0
 11
23.6692
 21
4.6633
 31
0.0
  0
LINE
  8
0
 62
     0
 10
23.6692
 20
4.6633
 30
0.0
 11
37.67
 21
4.6633
 31
0.0
  0
LINE
  8
0
 62
     0
 10
37.67
 20
4.6633
 30
0.0
 11
37.67
 21
5.66374
 31
0.0
  0
LINE
  8
0
 62
     0
 10
37.67
 20
5.66374
 30
0.0
 11
38.4694
 21
5.66374
 31
0.0
  0
LINE
  8
0
 62
     0
 10
38.4694
 20
5.66374
 30
0.0
 11
38.4694
 21
8.76434
 31
0.0
  0
LINE
  8
0
 62
     0
 10
38.4694
 20
8.76434
 30
0.0
 11
37.67
 21
8.76434
 31
0.0
  0
LINE
  8
0
 62
     0
 10
37.67
 20
8.76434
 30
0.0
 11
37.67
 21
14.5645
 31
0.0
  0
LINE
  8
0
 62
     0
 10
37.67
 20
14.5645
 30
0.0
 11
38.4694
 21
14.5645
 31
0.0
  0
LINE
  8
0
 62
     0
 10
38.4694
 20
14.5645
 30
0.0
 11
38.4694
 21
17.6637
 31
0.0
  0
LINE
  8
0
 62
     0
 10
38.4694
 20
17.6637
 30
0.0
 11
37.67
 21
17.6637
 31
0.0
  0
LINE
  8
0
 62
     0
 10
37.67
 20
17.6637
 30
0.0
 11
37.67
 21
18.6642
 31
0.0
  0
LINE
  8
0
 62
     0
 10
37.67
 20
18.6642
 30
0.0
 11
23.6692
 21
18.6642
 31
0.0
  0
LINE
  8
0
 62
     0
 10
42.7193
 20
18.6642
 30
0.0
 11
42.7193
 21
17.6637
 31
0.0
  0
LINE
  8
0
 62
     0
 10
42.7193
 20
17.6637
 30
0.0
 11
41.9199
 21
17.6637
 31
0.0
  0
LINE
  8
0
 62
     0
 10
41.9199
 20
17.6637
 30
0.0
 11
41.9199
 21
14.5645
 31
0.0
  0
LINE
  8
0
 62
     0
 10
41.9199
 20
14.5645
 30
0.0
 11
42.7193
 21
14.5645
 31
0.0
  0
LINE
  8
0
 62
     0
 10
42.7193
 20
14.5645
 30
0.0
 11
42.7193
 21
8.76434
 31
0.0
  0
LINE
  8
0
 62
     0
 10
42.7193
 20
8.76434
 30
0.0
 11
41.9199
 21
8.76434
 31
0.0
  0
LINE
  8
0
 62
     0
 10
41.9199
 20
8.76434
 30
0.0
 11
41.9199
 21
5.66374
 31
0.0
  0
LINE
  8
0
 62
     0
 10
41.9199
 20
5.66374
 30
0.0
 11
42.7193
 21
5.66374
 31
0.0
  0
LINE
  8
0
 62
     0
 10
42.7193
 20
5.66374
 30
0.0
 11
42.7193
 21
4.6633
 31
0.0
  0
LINE
  8
0
 62
     0
 10
42.7193
 20
4.6633
 30
0.0
 11
56.72
 21
4.6633
 31
0.0
  0
LINE
  8
0
 62
     0
 10
56.72
 20
4.6633
 30
0.0
 11
56.72
 21
5.66374
 31
0.0
  0
LINE
  8
0
 62
     0
 10
56.72
 20
5.66374
 30
0.0
 11
57.5194
 21
5.66374
 31
0.0
  0
LINE
  8
0
 62
     0
 10
57.5194
 20
5.66374
 30
0.0
 11
57.5194
 21
8.76434
 31
0.0
  0
LINE
  8
0
 62
     0
 10
57.5194
 20
8.76434
 30
0.0
 11
56.72
 21
8.76434
 31
0.0
  0
LINE
  8
0
 62
     0
 10
56.72
 20
8.76434
 30
0.0
 11
56.72
 21
14.5645
 31
0.0
  0
LINE
  8
0
 62
     0
 10
56.72
 20
14.5645
 30
0.0
 11
57.5194
 21
14.5645
 31
0.0
  0
LINE
  8
0
 62
     0
 10
57.5194
 20
14.5645
 30
0.0
 11
57.5194
 21
17.6637
 31
0.0
  0
LINE
  8
0
 62
     0
 10
57.5194
 20
17.6637
 30
0.0
 11
56.72
 21
17.6637
 31
0.0
  0
LINE
  8
0
 62
     0
 10
56.72
 20
17.6637
 30
0.0
 11
56.72
 21
18.6642
 31
0.0
  0
LINE
  8
0
 62
     0
 10
56.72
 20
18.6642
 30
0.0
 11
42.7193
 21
18.6642
 31
0.0
  0
LINE
  8
0
 62
     0
 10
61.7693
 20
18.6642
 30
0.0
 11
61.7693
 21
17.6637
 31
0.0
  0
LINE
  8
0
 62
     0
 10
61.7693
 20
17.6637
 30
0.0
 11
60.9699
 21
17.6637
 31
0.0
  0
LINE
  8
0
 62
     0
 10
60.9699
 20
17.6637
 30
0.0
 11
60.9699
 21
14.5645
 31
0.0
  0
LINE
  8
0
 62
     0
 10
60.9699
 20
14.5645
 30
0.0
 11
61.7693
 21
14.5645
 31
0.0
  0
LINE
  8
0
 62
     0
 10
61.7693
 20
14.5645
 30
0.0
 11
61.7693
 21
8.76434
 31
0.0
  0
LINE
  8
0
 62
     0
 10
61.7693
 20
8.76434
 30
0.0
 11
60.9699
 21
8.76434
 31
0.0
  0
LINE
  8
0
 62
     0
 10
60.9699
 20
8.76434
 30
0.0
 11
60.9699
 21
5.66374
 31
0.0
  0
LINE
  8
0
 62
     0
 10
60.9699
 20
5.66374
 30
0.0
 11
61.7693
 21
5.66374
 31
0.0
  0
LINE
  8
0
 62
     0
 10
61.7693
 20
5.66374
 30
0.0
 11
61.7693
 21
4.6633
 31
0.0
  0
LINE
  8
0
 62
     0
 10
61.7693
 20
4.6633
 30
0.0
 11
75.77
 21
4.6633
 31
0.0
  0
LINE
  8
0
 62
     0
 10
75.77
 20
4.6633
 30
0.0
 11
75.77
 21
5.66374
 31
0.0
  0
LINE
  8
0
 62
     0
 10
75.77
 20
5.66374
 30
0.0
 11
76.5694
 21
5.66374
 31
0.0
  0
LINE
  8
0
 62
     0
 10
76.5694
 20
5.66374
 30
0.0
 11
76.5694
 21
8.76434
 31
0.0
  0
LINE
  8
0
 62
     0
 10
76.5694
 20
8.76434
 30
0.0
 11
75.77
 21
8.76434
 31
0.0
  0
LINE
  8
0
 62
     0
 10
75.77
 20
8.76434
 30
0.0
 11
75.77
 21
14.5645
 31
0.0
  0
LINE
  8
0
 62
     0
 10
75.77
 20
14.5645
 30
0.0
 11
76.5694
 21
14.5645
 31
0.0
  0
LINE
  8
0
 62
     0
 10
76.5694
 20
14.5645
 30
0.0
 11
76.5694
 21
17.6637
 31
0.0
  0
LINE
  8
0
 62
     0
 10
76.5694
 20
17.6637
 30
0.0
 11
75.77
 21
17.6637
 31
0.0
  0
LINE
  8
0
 62
     0
 10
75.77
 20
17.6637
 30
0.0
 11
75.77
 21
18.6642
 31
0.0
  0
LINE
  8
0
 62
     0
 10
75.77
 20
18.6642
 30
0.0
 11
61.7693
 21
18.6642
 31
0.0
  0
LINE
  8
0
 62
     0
 10
4.61779
 20
37.7141
 30
0.0
 11
4.61779
 21
36.7136
 31
0.0
  0
LINE
  8
0
 62
     0
 10
4.61779
 20
36.7136
 30
0.0
 11
3.81854
 21
36.7136
 31
0.0
  0
LINE
  8
0
 62
     0
 10
3.81854
 20
36.7136
 30
0.0
 11
3.81854
 21
33.6145
 31
0.0
  0
LINE
  8
0
 62
     0
 10
3.81854
 20
33.6145
 30
0.0
 11
4.61779
 21
33.6145
 31
0.0
  0
LINE
  8
0
 62
     0
 10
4.61779
 20
33.6145
 30
0.0
 11
4.61779
 21
27.8143
 31
0.0
  0
LINE
  8
0
 62
     0
 10
4.61779
 20
27.8143
 30
0.0
 11
3.81854
 21
27.8143
 31
0.0
  0
LINE
  8
0
 62
     0
 10
3.81854
 20
27.8143
 30
0.0
 11
3.81854
 21
24.7137
 31
0.0
  0
LINE
  8
0
 62
     0
 10
3.81854
 20
24.7137
 30
0.0
 11
4.61779
 21
24.7137
 31
0.0
  0
LINE
  8
0
 62
     0
 10
4.61779
 20
24.7137
 30
0.0
 11
4.61779
 21
23.7133
 31
0.0
  0
LINE
  8
0
 62
     0
 10
4.61779
 20
23.7133
 30
0.0
 11
18.6201
 21
23.7133
 31
0.0
  0
LINE
  8
0
 62
     0
 10
18.6201
 20
23.7133
 30
0.0
 11
18.6201
 21
24.7137
 31
0.0
  0
LINE
  8
0
 62
     0
 10
18.6201
 20
24.7137
 30
0.0
 11
19.4193
 21
24.7137
 31
0.0
  0
LINE
  8
0
 62
     0
 10
19.4193
 20
24.7137
 30
0.0
 11
19.4193
 21
27.8143
 31
0.0
  0
LINE
  8
0
 62
     0
 10
19.4193
 20
27.8143
 30
0.0
 11
18.6201
 21
27.8143
 31
0.0
  0
LINE
  8
0
 62
     0
 10
18.6201
 20
27.8143
 30
0.0
 11
18.6201
 21
33.6145
 31
0.0
  0
LINE
  8
0
 62
     0
 10
18.6201
 20
33.6145
 30
0.0
 11
19.4193
 21
33.6145
 31
0.0
  0
LINE
  8
0
 62
     0
 10
19.4193
 20
33.6145
 30
0.0
 11
19.4193
 21
36.7136
 31
0.0
  0
LINE
  8
0
 62
     0
 10
19.4193
 20
36.7136
 30
0.0
 11
18.6201
 21
36.7136
 31
0.0
  0
LINE
  8
0
 62
     0
 10
18.6201
 20
36.7136
 30
0.0
 11
18.6201
 21
37.7141
 31
0.0
  0
LINE
  8
0
 62
     0
 10
18.6201
 20
37.7141
 30
0.0
 11
4.61779
 21
37.7141
 31
0.0
  0
LINE
  8
0
 62
     0
 10
23.6692
 20
37.7141
 30
0.0
 11
23.6692
 21
36.7136
 31
0.0
  0
LINE
  8
0
 62
     0
 10
23.6692
 20
36.7136
 30
0.0
 11
22.8699
 21
36.7136
 31
0.0
  0
LINE
  8
0
 62
     0
 10
22.8699
 20
36.7136
 30
0.0
 11
22.8699
 21
33.6145
 31
0.0
  0
LINE
  8
0
 62
     0
 10
22.8699
 20
33.6145
 30
0.0
 11
23.6692
 21
33.6145
 31
0.0
  0
LINE
  8
0
 62
     0
 10
23.6692
 20
33.6145
 30
0.0
 11
23.6692
 21
27.8143
 31
0.0
  0
LINE
  8
0
 62
     0
 10
23.6692
 20
27.8143
 30
0.0
 11
22.8699
 21
27.8143
 31
0.0
  0
LINE
  8
0
 62
     0
 10
22.8699
 20
27.8143
 30
0.0
 11
22.8699
 21
24.7137
 31
0.0
  0
LINE
  8
0
 62
     0
 10
22.8699
 20
24.7137
 30
0.0
 11
23.6692
 21
24.7137
 31
0.0
  0
LINE
  8
0
 62
     0
 10
23.6692
 20
24.7137
 30
0.0
 11
23.6692
 21
23.7133
 31
0.0
  0
LINE
  8
0
 62
     0
 10
23.6692
 20
23.7133
 30
0.0
 11
37.67
 21
23.7133
 31
0.0
  0
LINE
  8
0
 62
     0
 10
37.67
 20
23.7133
 30
0.0
 11
37.67
 21
24.7137
 31
0.0
  0
LINE
  8
0
 62
     0
 10
37.67
 20
24.7137
 30
0.0
 11
38.4694
 21
24.7137
 31
0.0
  0
LINE
  8
0
 62
     0
 10
38.4694
 20
24.7137
 30
0.0
 11
38.4694
 21
27.8143
 31
0.0
  0
LINE
  8
0
 62
     0
 10
38.4694
 20
27.8143
 30
0.0
 11
37.67
 21
27.8143
 31
0.0
  0
LINE
  8
0
 62
     0
 10
37.67
 20
27.8143
 30
0.0
 11
37.67
 21
33.6145
 31
0.0
  0
LINE
  8
0
 62
     0
 10
37.67
 20
33.6145
 30
0.0
 11
38.4694
 21
33.6145
 31
0.0
  0
LINE
  8
0
 62
     0
 10
38.4694
 20
33.6145
 30
0.0
 11
38.4694
 21
36.7136
 31
0.0
  0
LINE
  8
0
 62
     0
 10
38.4694
 20
36.7136
 30
0.0
 11
37.67
 21
36.7136
 31
0.0
  0
LINE
  8
0
 62
     0
 10
37.67
 20
36.7136
 30
0.0
 11
37.67
 21
37.7141
 31
0.0
  0
LINE
  8
0
 62
     0
 10
37.67
 20
37.7141
 30
0.0
 11
23.6692
 21
37.7141
 31
0.0
  0
LINE
  8
0
 62
     0
 10
42.7193
 20
37.7141
 30
0.0
 11
42.7193
 21
36.7136
 31
0.0
  0
LINE
  8
0
 62
     0
 10
42.7193
 20
36.7136
 30
0.0
 11
41.9199
 21
36.7136
 31
0.0
  0
LINE
  8
0
 62
     0
 10
41.9199
 20
36.7136
 30
0.0
 11
41.9199
 21
33.6145
 31
0.0
  0
LINE
  8
0
 62
     0
 10
41.9199
 20
33.6145
 30
0.0
 11
42.7193
 21
33.6145
 31
0.0
  0
LINE
  8
0
 62
     0
 10
42.7193
 20
33.6145
 30
0.0
 11
42.7193
 21
27.8143
 31
0.0
  0
LINE
  8
0
 62
     0
 10
42.7193
 20
27.8143
 30
0.0
 11
41.9199
 21
27.8143
 31
0.0
  0
LINE
  8
0
 62
     0
 10
41.9199
 20
27.8143
 30
0.0
 11
41.9199
 21
24.7137
 31
0.0
  0
LINE
  8
0
 62
     0
 10
41.9199
 20
24.7137
 30
0.0
 11
42.7193
 21
24.7137
 31
0.0
  0
LINE
  8
0
 62
     0
 10
42.7193
 20
24.7137
 30
0.0
 11
42.7193
 21
23.7133
 31
0.0
  0
LINE
  8
0
 62
     0
 10
42.7193
 20
23.7133
 30
0.0
 11
56.72
 21
23.7133
 31
0.0
  0
LINE
  8
0
 62
     0
 10
56.72
 20
23.7133
 30
0.0
 11
56.72
 21
24.7137
 31
0.0
  0
LINE
  8
0
 62
     0
 10
56.72
 20
24.7137
 30
0.0
 11
57.5194
 21
24.7137
 31
0.0
  0
LINE
  8
0
 62
     0
 10
57.5194
 20
24.7137
 30
0.0
 11
57.5194
 21
27.8143
 31
0.0
  0
LINE
  8
0
 62
     0
 10
57.5194
 20
27.8143
 30
0.0
 11
56.72
 21
27.8143
 31
0.0
  0
LINE
  8
0
 62
     0
 10
56.72
 20
27.8143
 30
0.0
 11
56.72
 21
33.6145
 31
0.0
  0
LINE
  8
0
 62
     0
 10
56.72
 20
33.6145
 30
0.0
 11
57.5194
 21
33.6145
 31
0.0
  0
LINE
  8
0
 62
     0
 10
57.5194
 20
33.6145
 30
0.0
 11
57.5194
 21
36.7136
 31
0.0
  0
LINE
  8
0
 62
     0
 10
57.5194
 20
36.7136
 30
0.0
 11
56.72
 21
36.7136
 31
0.0
  0
LINE
  8
0
 62
     0
 10
56.72
 20
36.7136
 30
0.0
 11
56.72
 21
37.7141
 31
0.0
  0
LINE
  8
0
 62
     0
 10
56.72
 20
37.7141
 30
0.0
 11
42.7193
 21
37.7141
 31
0.0
  0
LINE
  8
0
 62
     0
 10
61.7693
 20
37.7141
 30
0.0
 11
61.7693
 21
36.7136
 31
0.0
  0
LINE
  8
0
 62
     0
 10
61.7693
 20
36.7136
 30
0.0
 11
60.9699
 21
36.7136
 31
0.0
  0
LINE
  8
0
 62
     0
 10
60.9699
 20
36.7136
 30
0.0
 11
60.9699
 21
33.6145
 31
0.0
  0
LINE
  8
0
 62
     0
 10
60.9699
 20
33.6145
 30
0.0
 11
61.7693
 21
33.6145
 31
0.0
  0
LINE
  8
0
 62
     0
 10
61.7693
 20
33.6145
 30
0.0
 11
61.7693
 21
27.8143
 31
0.0
  0
LINE
  8
0
 62
     0
 10
61.7693
 20
27.8143
 30
0.0
 11
60.9699
 21
27.8143
 31
0.0
  0
LINE
  8
0
 62
     0
 10
60.9699
 20
27.8143
 30
0.0
 11
60.9699
 21
24.7137
 31
0.0
  0
LINE
  8
0
 62
     0
 10
60.9699
 20
24.7137
 30
0.0
 11
61.7693
 21
24.7137
 31
0.0
  0
LINE
  8
0
 62
     0
 10
61.7693
 20
24.7137
 30
0.0
 11
61.7693
 21
23.7133
 31
0.0
  0
LINE
  8
0
 62
     0
 10
61.7693
 20
23.7133
 30
0.0
 11
75.77
 21
23.7133
 31
0.0
  0
LINE
  8
0
 62
     0
 10
75.77
 20
23.7133
 30
0.0
 11
75.77
 21
24.7137
 31
0.0
  0
LINE
  8
0
 62
     0
 10
75.77
 20
24.7137
 30
0.0
 11
76.5694
 21
24.7137
 31
0.0
  0
LINE
  8
0
 62
     0
 10
76.5694
 20
24.7137
 30
0.0
 11
76.5694
 21
27.8143
 31
0.0
  0
LINE
  8
0
 62
     0
 10
76.5694
 20
27.8143
 30
0.0
 11
75.77
 21
27.8143
 31
0.0
  0
LINE
  8
0
 62
     0
 10
75.77
 20
27.8143
 30
0.0
 11
75.77
 21
33.6145
 31
0.0
  0
LINE
  8
0
 62
     0
 10
75.77
 20
33.6145
 30
0.0
 11
76.5694
 21
33.6145
 31
0.0
  0
LINE
  8
0
 62
     0
 10
76.5694
 20
33.6145
 30
0.0
 11
76.5694
 21
36.7136
 31
0.0
  0
LINE
  8
0
 62
     0
 10
76.5694
 20
36.7136
 30
0.0
 11
75.77
 21
36.7136
 31
0.0
  0
LINE
  8
0
 62
     0
 10
75.77
 20
36.7136
 30
0.0
 11
75.77
 21
37.7141
 31
0.0
  0
LINE
  8
0
 62
     0
 10
75.77
 20
37.7141
 30
0.0
 11
61.7693
 21
37.7141
 31
0.0
  0
LINE
  8
0
 62
     0
 10
4.61779
 20
56.7641
 30
0.0
 11
4.61779
 21
55.7636
 31
0.0
  0
LINE
  8
0
 62
     0
 10
4.61779
 20
55.7636
 30
0.0
 11
3.81854
 21
55.7636
 31
0.0
  0
LINE
  8
0
 62
     0
 10
3.81854
 20
55.7636
 30
0.0
 11
3.81854
 21
52.6644
 31
0.0
  0
LINE
  8
0
 62
     0
 10
3.81854
 20
52.6644
 30
0.0
 11
4.61779
 21
52.6644
 31
0.0
  0
LINE
  8
0
 62
     0
 10
4.61779
 20
52.6644
 30
0.0
 11
4.61779
 21
46.8644
 31
0.0
  0
LINE
  8
0
 62
     0
 10
4.61779
 20
46.8644
 30
0.0
 11
3.81854
 21
46.8644
 31
0.0
  0
LINE
  8
0
 62
     0
 10
3.81854
 20
46.8644
 30
0.0
 11
3.81854
 21
43.7638
 31
0.0
  0
LINE
  8
0
 62
     0
 10
3.81854
 20
43.7638
 30
0.0
 11
4.61779
 21
43.7638
 31
0.0
  0
LINE
  8
0
 62
     0
 10
4.61779
 20
43.7638
 30
0.0
 11
4.61779
 21
42.7634
 31
0.0
  0
LINE
  8
0
 62
     0
 10
4.61779
 20
42.7634
 30
0.0
 11
18.6201
 21
42.7634
 31
0.0
  0
LINE
  8
0
 62
     0
 10
18.6201
 20
42.7634
 30
0.0
 11
18.6201
 21
43.7638
 31
0.0
  0
LINE
  8
0
 62
     0
 10
18.6201
 20
43.7638
 30
0.0
 11
19.4193
 21
43.7638
 31
0.0
  0
LINE
  8
0
 62
     0
 10
19.4193
 20
43.7638
 30
0.0
 11
19.4193
 21
46.8644
 31
0.0
  0
LINE
  8
0
 62
     0
 10
19.4193
 20
46.8644
 30
0.0
 11
18.6201
 21
46.8644
 31
0.0
  0
LINE
  8
0
 62
     0
 10
18.6201
 20
46.8644
 30
0.0
 11
18.6201
 21
52.6644
 31
0.0
  0
LINE
  8
0
 62
     0
 10
18.6201
 20
52.6644
 30
0.0
 11
19.4193
 21
52.6644
 31
0.0
  0
LINE
  8
0
 62
     0
 10
19.4193
 20
52.6644
 30
0.0
 11
19.4193
 21
55.7636
 31
0.0
  0
LINE
  8
0
 62
     0
 10
19.4193
 20
55.7636
 30
0.0
 11
18.6201
 21
55.7636
 31
0.0
  0
LINE
  8
0
 62
     0
 10
18.6201
 20
55.7636
 30
0.0
 11
18.6201
 21
56.7641
 31
0.0
  0
LINE
  8
0
 62
     0
 10
18.6201
 20
56.7641
 30
0.0
 11
4.61779
 21
56.7641
 31
0.0
  0
LINE
  8
0
 62
     0
 10
23.6692
 20
56.7641
 30
0.0
 11
23.6692
 21
55.7636
 31
0.0
  0
LINE
  8
0
 62
     0
 10
23.6692
 20
55.7636
 30
0.0
 11
22.8699
 21
55.7636
 31
0.0
  0
LINE
  8
0
 62
     0
 10
22.8699
 20
55.7636
 30
0.0
 11
22.8699
 21
52.6644
 31
0.0
  0
LINE
  8
0
 62
     0
 10
22.8699
 20
52.6644
 30
0.0
 11
23.6692
 21
52.6644
 31
0.0
  0
LINE
  8
0
 62
     0
 10
23.6692
 20
52.6644
 30
0.0
 11
23.6692
 21
46.8644
 31
0.0
  0
LINE
  8
0
 62
     0
 10
23.6692
 20
46.8644
 30
0.0
 11
22.8699
 21
46.8644
 31
0.0
  0
LINE
  8
0
 62
     0
 10
22.8699
 20
46.8644
 30
0.0
 11
22.8699
 21
43.7638
 31
0.0
  0
LINE
  8
0
 62
     0
 10
22.8699
 20
43.7638
 30
0.0
 11
23.6692
 21
43.7638
 31
0.0
  0
LINE
  8
0
 62
     0
 10
23.6692
 20
43.7638
 30
0.0
 11
23.6692
 21
42.7634
 31
0.0
  0
LINE
  8
0
 62
     0
 10
23.6692
 20
42.7634
 30
0.0
 11
37.67
 21
42.7634
 31
0.0
  0
LINE
  8
0
 62
     0
 10
37.67
 20
42.7634
 30
0.0
 11
37.67
 21
43.7638
 31
0.0
  0
LINE
  8
0
 62
     0
 10
37.67
 20
43.7638
 30
0.0
 11
38.4694
 21
43.7638
 31
0.0
  0
LINE
  8
0
 62
     0
 10
38.4694
 20
43.7638
 30
0.0
 11
38.4694
 21
46.8644
 31
0.0
  0
LINE
  8
0
 62
     0
 10
38.4694
 20
46.8644
 30
0.0
 11
37.67
 21
46.8644
 31
0.0
  0
LINE
  8
0
 62
     0
 10
37.67
 20
46.8644
 30
0.0
 11
37.67
 21
52.6644
 31
0.0
  0
LINE
  8
0
 62
     0
 10
37.67
 20
52.6644
 30
0.0
 11
38.4694
 21
52.6644
 31
0.0
  0
LINE
  8
0
 62
     0
 10
38.4694
 20
52.6644
 30
0.0
 11
38.4694
 21
55.7636
 31
0.0
  0
LINE
  8
0
 62
     0
 10
38.4694
 20
55.7636
 30
0.0
 11
37.67
 21
55.7636
 31
0.0
  0
LINE
  8
0
 62
     0
 10
37.67
 20
55.7636
 30
0.0
 11
37.67
 21
56.7641
 31
0.0
  0
LINE
  8
0
 62
     0
 10
37.67
 20
56.7641
 30
0.0
 11
23.6692
 21
56.7641
 31
0.0
  0
LINE
  8
0
 62
     0
 10
42.7193
 20
56.7641
 30
0.0
 11
42.7193
 21
55.7636
 31
0.0
  0
LINE
  8
0
 62
     0
 10
42.7193
 20
55.7636
 30
0.0
 11
41.9199
 21
55.7636
 31
0.0
  0
LINE
  8
0
 62
     0
 10
41.9199
 20
55.7636
 30
0.0
 11
41.9199
 21
52.6644
 31
0.0
  0
LINE
  8
0
 62
     0
 10
41.9199
 20
52.6644
 30
0.0
 11
42.7193
 21
52.6644
 31
0.0
  0
LINE
  8
0
 62
     0
 10
42.7193
 20
52.6644
 30
0.0
 11
42.7193
 21
46.8644
 31
0.0
  0
LINE
  8
0
 62
     0
 10
42.7193
 20
46.8644
 30
0.0
 11
41.9199
 21
46.8644
 31
0.0
  0
LINE
  8
0
 62
     0
 10
41.9199
 20
46.8644
 30
0.0
 11
41.9199
 21
43.7638
 31
0.0
  0
LINE
  8
0
 62
     0
 10
41.9199
 20
43.7638
 30
0.0
 11
42.7193
 21
43.7638
 31
0.0
  0
LINE
  8
0
 62
     0
 10
42.7193
 20
43.7638
 30
0.0
 11
42.7193
 21
42.7634
 31
0.0
  0
LINE
  8
0
 62
     0
 10
42.7193
 20
42.7634
 30
0.0
 11
56.72
 21
42.7634
 31
0.0
  0
LINE
  8
0
 62
     0
 10
56.72
 20
42.7634
 30
0.0
 11
56.72
 21
43.7638
 31
0.0
  0
LINE
  8
0
 62
     0
 10
56.72
 20
43.7638
 30
0.0
 11
57.5194
 21
43.7638
 31
0.0
  0
LINE
  8
0
 62
     0
 10
57.5194
 20
43.7638
 30
0.0
 11
57.5194
 21
46.8644
 31
0.0
  0
LINE
  8
0
 62
     0
 10
57.5194
 20
46.8644
 30
0.0
 11
56.72
 21
46.8644
 31
0.0
  0
LINE
  8
0
 62
     0
 10
56.72
 20
46.8644
 30
0.0
 11
56.72
 21
52.6644
 31
0.0
  0
LINE
  8
0
 62
     0
 10
56.72
 20
52.6644
 30
0.0
 11
57.5194
 21
52.6644
 31
0.0
  0
LINE
  8
0
 62
     0
 10
57.5194
 20
52.6644
 30
0.0
 11
57.5194
 21
55.7636
 31
0.0
  0
LINE
  8
0
 62
     0
 10
57.5194
 20
55.7636
 30
0.0
 11
56.72
 21
55.7636
 31
0.0
  0
LINE
  8
0
 62
     0
 10
56.72
 20
55.7636
 30
0.0
 11
56.72
 21
56.7641
 31
0.0
  0
LINE
  8
0
 62
     0
 10
56.72
 20
56.7641
 30
0.0
 11
42.7193
 21
56.7641
 31
0.0
  0
LINE
  8
0
 62
     0
 10
61.7693
 20
56.7641
 30
0.0
 11
61.7693
 21
55.7636
 31
0.0
  0
LINE
  8
0
 62
     0
 10
61.7693
 20
55.7636
 30
0.0
 11
60.9699
 21
55.7636
 31
0.0
  0
LINE
  8
0
 62
     0
 10
60.9699
 20
55.7636
 30
0.0
 11
60.9699
 21
52.6644
 31
0.0
  0
LINE
  8
0
 62
     0
 10
60.9699
 20
52.6644
 30
0.0
 11
61.7693
 21
52.6644
 31
0.0
  0
LINE
  8
0
 62
     0
 10
61.7693
 20
52.6644
 30
0.0
 11
61.7693
 21
46.8644
 31
0.0
  0
LINE
  8
0
 62
     0
 10
61.7693
 20
46.8644
 30
0.0
 11
60.9699
 21
46.8644
 31
0.0
  0
LINE
  8
0
 62
     0
 10
60.9699
 20
46.8644
 30
0.0
 11
60.9699
 21
43.7638
 31
0.0
  0
LINE
  8
0
 62
     0
 10
60.9699
 20
43.7638
 30
0.0
 11
61.7693
 21
43.7638
 31
0.0
  0
LINE
  8
0
 62
     0
 10
61.7693
 20
43.7638
 30
0.0
 11
61.7693
 21
42.7634
 31
0.0
  0
LINE
  8
0
 62
     0
 10
61.7693
 20
42.7634
 30
0.0
 11
75.77
 21
42.7634
 31
0.0
  0
LINE
  8
0
 62
     0
 10
75.77
 20
42.7634
 30
0.0
 11
75.77
 21
43.7638
 31
0.0
  0
LINE
  8
0
 62
     0
 10
75.77
 20
43.7638
 30
0.0
 11
76.5694
 21
43.7638
 31
0.0
  0
LINE
  8
0
 62
     0
 10
76.5694
 20
43.7638
 30
0.0
 11
76.5694
 21
46.8644
 31
0.0
  0
LINE
  8
0
 62
     0
 10
76.5694
 20
46.8644
 30
0.0
 11
75.77
 21
46.8644
 31
0.0
  0
LINE
  8
0
 62
     0
 10
75.77
 20
46.8644
 30
0.0
 11
75.77
 21
52.6644
 31
0.0
  0
LINE
  8
0
 62
     0
 10
75.77
 20
52.6644
 30
0.0
 11
76.5694
 21
52.6644
 31
0.0
  0
LINE
  8
0
 62
     0
 10
76.5694
 20
52.6644
 30
0.0
 11
76.5694
 21
55.7636
 31
0.0
  0
LINE
  8
0
 62
     0
 10
76.5694
 20
55.7636
 30
0.0
 11
75.77
 21
55.7636
 31
0.0
  0
LINE
  8
0
 62
     0
 10
75.77
 20
55.7636
 30
0.0
 11
75.77
 21
56.7641
 31
0.0
  0
LINE
  8
0
 62
     0
 10
75.77
 20
56.7641
 30
0.0
 11
61.7693
 21
56.7641
 31
0.0
  0
LINE
  8
0
 62
     0
 10
4.61779
 20
75.8155
 30
0.0
 11
4.61779
 21
74.815
 31
0.0
  0
LINE
  8
0
 62
     0
 10
4.61779
 20
74.815
 30
0.0
 11
3.81854
 21
74.815
 31
0.0
  0
LINE
  8
0
 62
     0
 10
3.81854
 20
74.815
 30
0.0
 11
3.81854
 21
71.7144
 31
0.0
  0
LINE
  8
0
 62
     0
 10
3.81854
 20
71.7144
 30
0.0
 11
4.61779
 21
71.7144
 31
0.0
  0
LINE
  8
0
 62
     0
 10
4.61779
 20
71.7144
 30
0.0
 11
4.61779
 21
65.9144
 31
0.0
  0
LINE
  8
0
 62
     0
 10
4.61779
 20
65.9144
 30
0.0
 11
3.81854
 21
65.9144
 31
0.0
  0
LINE
  8
0
 62
     0
 10
3.81854
 20
65.9144
 30
0.0
 11
3.81854
 21
62.8138
 31
0.0
  0
LINE
  8
0
 62
     0
 10
3.81854
 20
62.8138
 30
0.0
 11
4.61779
 21
62.8138
 31
0.0
  0
LINE
  8
0
 62
     0
 10
4.61779
 20
62.8138
 30
0.0
 11
4.61779
 21
61.8134
 31
0.0
  0
LINE
  8
0
 62
     0
 10
4.61779
 20
61.8134
 30
0.0
 11
18.6201
 21
61.8134
 31
0.0
  0
LINE
  8
0
 62
     0
 10
18.6201
 20
61.8134
 30
0.0
 11
18.6201
 21
62.8138
 31
0.0
  0
LINE
  8
0
 62
     0
 10
18.6201
 20
62.8138
 30
0.0
 11
19.4193
 21
62.8138
 31
0.0
  0
LINE
  8
0
 62
     0
 10
19.4193
 20
62.8138
 30
0.0
 11
19.4193
 21
65.9144
 31
0.0
  0
LINE
  8
0
 62
     0
 10
19.4193
 20
65.9144
 30
0.0
 11
18.6201
 21
65.9144
 31
0.0
  0
LINE
  8
0
 62
     0
 10
18.6201
 20
65.9144
 30
0.0
 11
18.6201
 21
71.7144
 31
0.0
  0
LINE
  8
0
 62
     0
 10
18.6201
 20
71.7144
 30
0.0
 11
19.4193
 21
71.7144
 31
0.0
  0
LINE
  8
0
 62
     0
 10
19.4193
 20
71.7144
 30
0.0
 11
19.4193
 21
74.815
 31
0.0
  0
LINE
  8
0
 62
     0
 10
19.4193
 20
74.815
 30
0.0
 11
18.6201
 21
74.815
 31
0.0
  0
LINE
  8
0
 62
     0
 10
18.6201
 20
74.815
 30
0.0
 11
18.6201
 21
75.8155
 31
0.0
  0
LINE
  8
0
 62
     0
 10
18.6201
 20
75.8155
 30
0.0
 11
4.61779
 21
75.8155
 31
0.0
  0
LINE
  8
0
 62
     0
 10
61.7693
 20
75.8155
 30
0.0
 11
61.7693
 21
74.815
 31
0.0
  0
LINE
  8
0
 62
     0
 10
61.7693
 20
74.815
 30
0.0
 11
60.9699
 21
74.815
 31
0.0
  0
LINE
  8
0
 62
     0
 10
60.9699
 20
74.815
 30
0.0
 11
60.9699
 21
71.7144
 31
0.0
  0
LINE
  8
0
 62
     0
 10
60.9699
 20
71.7144
 30
0.0
 11
61.7693
 21
71.7144
 31
0.0
  0
LINE
  8
0
 62
     0
 10
61.7693
 20
71.7144
 30
0.0
 11
61.7693
 21
65.9144
 31
0.0
  0
LINE
  8
0
 62
     0
 10
61.7693
 20
65.9144
 30
0.0
 11
60.9699
 21
65.9144
 31
0.0
  0
LINE
  8
0
 62
     0
 10
60.9699
 20
65.9144
 30
0.0
 11
60.9699
 21
62.8138
 31
0.0
  0
LINE
  8
0
 62
     0
 10
60.9699
 20
62.8138
 30
0.0
 11
61.7693
 21
62.8138
 31
0.0
  0
LINE
  8
0
 62
     0
 10
61.7693
 20
62.8138
 30
0.0
 11
61.7693
 21
61.8134
 31
0.0
  0
LINE
  8
0
 62
     0
 10
61.7693
 20
61.8134
 30
0.0
 11
75.77
 21
61.8134
 31
0.0
  0
LINE
  8
0
 62
     0
 10
75.77
 20
61.8134
 30
0.0
 11
75.77
 21
62.8138
 31
0.0
  0
LINE
  8
0
 62
     0
 10
75.77
 20
62.8138
 30
0.0
 11
76.5694
 21
62.8138
 31
0.0
  0
LINE
  8
0
 62
     0
 10
76.5694
 20
62.8138
 30
0.0
 11
76.5694
 21
65.9144
 31
0.0
  0
LINE
  8
0
 62
     0
 10
76.5694
 20
65.9144
 30
0.0
 11
75.77
 21
65.9144
 31
0.0
  0
LINE
  8
0
 62
     0
 10
75.77
 20
65.9144
 30
0.0
 11
75.77
 21
71.7144
 31
0.0
  0
LINE
  8
0
 62
     0
 10
75.77
 20
71.7144
 30
0.0
 11
76.5694
 21
71.7144
 31
0.0
  0
LINE
  8
0
 62
     0
 10
76.5694
 20
71.7144
 30
0.0
 11
76.5694
 21
74.815
 31
0.0
  0
LINE
  8
0
 62
     0
 10
76.5694
 20
74.815
 30
0.0
 11
75.77
 21
74.815
 31
0.0
  0
LINE
  8
0
 62
     0
 10
75.77
 20
74.815
 30
0.0
 11
75.77
 21
75.8155
 31
0.0
  0
LINE
  8
0
 62
     0
 10
75.77
 20
75.8155
 30
0.0
 11
61.7693
 21
75.8155
 31
0.0
  0
ENDSEC
  0
EOF
